PathFileType	4	(X/Y/Z)	subject01_walk1.trc																																																																																																																									
DataRate	CameraRate	NumFrames	NumMarkers	Units	OrigDataRate	OrigDataStartFrame	OrigNumFrames																																																																																																																					
60	60	8	41	mm	60	133	151																																																																																																																					
Frame#	Time	R.ASIS			L.ASIS			V.Sacral			R.Thigh.Upper			R.Thigh.Front			R.Thigh.Rear			L.Thigh.Upper			L.Thigh.Front			L.Thigh.Rear			R.Shank.Upper			R.Shank.Front			R.Shank.Rear			L.Shank.Upper			L.Shank.Front			L.Shank.Rear			R.Heel			R.Midfoot.Sup			R.Midfoot.Lat			R.Toe.Tip			L.Heel			L.Midfoot.Sup			L.Midfoot.Lat			L.Toe.Tip			Sternum			R.Acromium			L.Acromium			R.Bicep			L.Bicep			R.Elbow			L.Elbow			R.Wrist.Med			R.Wrist.Lat			L.Wrist.Med			L.Wrist.Lat			R.Toe.Lat			R.Toe.Med			L.Toe.Lat			L.Toe.Med			R.Temple			L.Temple			Top.Head		
		X1	Y1	Z1	X2	Y2	Z2	X3	Y3	Z3	X4	Y4	Z4	X5	Y5	Z5	X6	Y6	Z6	X7	Y7	Z7	X8	Y8	Z8	X9	Y9	Z9	X10	Y10	Z10	X11	Y11	Z11	X12	Y12	Z12	X13	Y13	Z13	X14	Y14	Z14	X15	Y15	Z15	X16	Y16	Z16	X17	Y17	Z17	X18	Y18	Z18	X19	Y19	Z19	X20	Y20	Z20	X21	Y21	Z21	X22	Y22	Z22	X23	Y23	Z23	X24	Y24	Z24	X25	Y25	Z25	X26	Y26	Z26	X27	Y27	Z27	X28	Y28	Z28	X29	Y29	Z29	X30	Y30	Z30	X31	Y31	Z31	X32	Y32	Z32	X33	Y33	Z33	X34	Y34	Z34	X35	Y35	Z35	X36	Y36	Z36	X37	Y37	Z37	X38	Y38	Z38	X39	Y39	Z39	X40	Y40	Z40	X41	Y41	Z41
																																																																																																																												
133	2.2	619.06104	1081.05591	174.39307	619.87585	1072.573	-85.47517	421.07349	1071.6582	51.20615	598.682	751.737	214.91	667.415	700.263	121.213	599.698	630.976	199.718	629.918	788.728	-149.103	731.692	784.449	-92.4335	668.045	685.812	-138.538	533.10431	459.20654	183.61183	608.16125	420.02884	128.41797	541.27258	371.96655	186.95824	666.83862	493.39917	-148.30585	676.78113	422.94742	-96.16685	623.13647	472.00345	-151.25266	440.20795	71.12734	93.51236	584.91718	78.90778	61.59606	575.64258	63.23636	168.6888	728.521	48.72889	104.97929	375.34091	253.11676	-46.80912	507.61398	148.77571	-30.53487	484.84906	151.66116	-125.69049	577.75018	60.7336	-63.88387	643.19885	1392.9801	39.05947	545.51642	1472.58337	255.08173	560.30609	1506.4397	-163.98047	575.92493	1268.37891	296.05844	567.97174	1268.2937	-203.71782	545.43225	1160.88977	324.46576	510.82056	1177.35767	-241.98241	723.1181	958.98419	300.23947	687.86615	935.65948	350.62869	607.42688	943.59814	-210.42465	562.41791	937.64893	-269.94409	664.33032	38.73283	183.97739	670.99152	46.83341	73.57121	515.42682	92.23813	-136.65485	541.34052	90.32544	-36.37941	684.71631	1637.6167	131.60045	692.87164	1646.68396	-7.19394	636.28369	1808.02429	73.68827
134	2.217	616.76086	1081.13123	175.92751	619.19012	1074.06628	-83.84676	418.8642	1072.65527	51.51074	590.429	750.244	215.357	657.556	696.898	121.543	587.899	629.524	200.016	633.303	791.51	-147.678	734.968	789.479	-90.6875	673.548	689.437	-136.787	517.85736	459.23376	183.55786	591.34473	419.16464	129.12465	525.29016	371.97281	186.40187	681.12299	494.35605	-146.39212	694.89142	423.88055	-94.39282	638.69147	469.79358	-150.04152	421.7023	71.1834	93.21958	566.06927	78.88891	61.4702	556.49646	63.29252	168.476	709.43311	48.42093	105.02285	406.91324	231.07486	-46.09401	547.13727	138.32892	-30.40297	525.40881	140.69174	-125.68721	625.04987	57.23277	-63.89063	641.49658	1393.88806	38.73948	544.89685	1473.94336	254.84381	558.8053	1506.13208	-163.63577	576.18689	1270.01965	296.84872	562.50372	1268.55151	-204.31429	547.94165	1162.45044	326.01563	503.448	1177.84424	-242.5435	731.6441	965.80664	299.35919	697.03967	941.24695	349.48697	603.15826	944.29553	-210.04321	555.62646	938.88037	-268.72287	644.59143	38.97816	183.88583	651.90308	46.67472	73.4925	560.61304	84.02331	-136.69084	586.33685	83.34715	-36.39676	683.86646	1638.70142	131.36554	691.61438	1647.44397	-7.8817	633.7309	1808.76953	72.0901
135	2.233	613.69757	1080.18933	177.33026	617.06079	1074.13159	-82.76028	416.71664	1073.18884	51.76716	581.797	748.508	215.962	647.386	693.512	122.013	575.987	627.924	200.434	634.47	793.125	-146.544	736.199	793.002	-89.6325	676.564	691.811	-135.566	502.11389	459.05145	183.59854	575.80511	419.78308	128.71056	507.87601	372.61835	186.50854	691.04144	493.91022	-142.66122	712.84589	425.57733	-93.62892	652.77405	466.32224	-148.77492	403.07852	71.32652	92.86983	547.01556	78.72158	61.34615	537.35199	63.27091	168.23558	690.28479	48.2335	105.0133	440.84805	207.40485	-45.43953	588.77185	127.67661	-30.97651	566.92145	129.25633	-126.14104	673.68115	54.4454	-65.16945	640.21564	1393.23364	38.8718	544.70398	1474.4679	254.61839	557.24786	1504.98352	-164.69576	577.84821	1270.98157	296.96225	556.97101	1267.92261	-204.96524	550.06378	1163.40308	327.3522	496.42679	1177.79419	-242.39931	738.81677	973.08209	298.10147	705.98309	946.62164	348.44815	598.3244	945.57684	-209.92558	549.96265	937.7934	-266.67831	625.33295	38.6223	183.59244	633.11945	46.60411	73.57208	607.01746	76.21691	-137.58817	632.85846	76.58212	-37.39494	683.04968	1639.84253	130.55165	689.72528	1647.87708	-9.52751	631.70721	1809.14917	70.95663
136	2.25	611.80194	1079.4762	178.45892	615.33734	1073.00098	-81.88823	414.66779	1073.26367	51.91214	573.722	746.65	216.762	637.654	690.059	122.618	564.582	626.303	201.007	634.465	793.225	-145.618	736.499	794.437	-89.268	677.887	692.458	-134.776	487.92807	459.76178	183.51846	560.20685	418.59784	129.18129	491.89563	372.50192	186.6031	698.64014	492.22281	-139.48447	727.68774	425.21259	-92.24033	665.07745	461.54941	-147.10645	384.2005	71.59727	92.50599	527.74481	78.41982	61.26684	518.26874	63.18568	168.01549	671.1145	48.11859	104.93744	477.16324	182.96864	-44.71299	632.23694	117.58363	-32.18107	609.17334	118.06179	-127.14815	723.19543	53.02049	-67.73428	639.25549	1392.60388	39.1508	544.33008	1474.47009	254.451	555.43927	1503.49463	-165.12233	578.34753	1271.56152	297.72464	552.34698	1266.4137	-205.34062	551.81995	1163.7334	328.45901	490.80743	1177.19556	-242.20164	745.83862	978.67932	296.4101	714.013	951.86035	346.87262	594.33862	945.76978	-209.27626	546.32648	937.18127	-267.03918	606.53558	37.8756	183.36447	614.5899	46.56709	73.76517	654.22614	69.49045	-139.3837	680.46088	70.66776	-39.4452	681.98438	1639.9707	129.27032	689.40656	1647.88391	-9.73777	629.16925	1808.84473	69.39425
137	2.267	608.9704	1078.24756	178.96291	613.92847	1072.40247	-81.48996	412.71512	1072.89722	51.88395	565.965	744.528	217.071	628.259	686.418	122.754	553.668	624.481	201.171	633.105	792.244	-145.573	735.754	794.257	-90.3745	677.271	691.78	-134.917	472.96857	459.56537	183.03618	545.12799	417.78915	129.21146	476.67596	372.42624	186.65109	707.10767	489.94949	-137.70274	742.33807	424.9964	-91.22074	675.50262	455.5192	-144.9404	365.13367	71.9378	92.10641	508.31943	78.02366	61.24634	499.28665	63.10627	167.83954	651.93878	47.95463	104.85195	515.66058	158.81934	-43.79874	676.93353	108.89902	-33.86155	651.91046	107.93674	-128.59399	772.9787	53.65126	-71.33849	637.85486	1390.77637	38.329	543.59497	1473.91174	253.92381	554.57532	1501.80933	-165.53134	578.34479	1271.31921	298.26611	548.52167	1265.30432	-205.49467	553.20996	1163.47961	329.30856	485.88809	1176.36841	-242.46968	751.99042	985.20636	295.42328	722.71985	956.01398	345.48358	590.91656	945.53595	-208.9178	542.51941	936.52576	-265.00732	587.39874	37.81001	183.04843	596.09369	46.45037	73.90607	701.71558	64.50496	-141.931	728.65985	66.40482	-42.37014	681.40985	1640.01184	128.60332	688.5025	1647.36963	-11.44483	626.72876	1808.04102	68.05214
138	2.283	606.03601	1076.08765	179.28732	612.33105	1070.15601	-80.82956	410.88736	1072.12085	51.64067	558.276	742.156	217.648	619.068	682.785	123.136	543.178	622.454	201.56	630.204	789.563	-145.32	733.697	792.117	-91.7446	674.814	689.273	-134.891	459.36865	459.54785	183.49388	530.55872	416.75253	129.24686	462.11258	372.94342	186.26808	711.68591	486.02756	-135.08934	755.03961	424.41193	-90.48335	684.23547	448.42291	-142.47594	345.98962	72.30709	91.66431	488.87509	77.59753	61.25126	480.3822	63.09732	167.68889	632.76904	47.67239	104.83079	555.95734	136.12547	-42.70674	722.04608	102.42985	-35.79554	694.84473	99.78276	-130.17935	822.20715	56.98893	-75.49876	637.91504	1389.44556	37.85111	540.42487	1472.67676	253.81245	554.08264	1499.13538	-165.86241	578.25134	1270.8158	298.32947	545.34174	1262.67676	-206.05476	554.2392	1162.7345	329.87473	482.2038	1174.5885	-241.8968	757.35706	989.71741	292.89508	728.99091	959.8916	343.79257	588.94922	945.17328	-208.97006	539.99158	935.03699	-264.8703	567.64368	38.63443	183.02437	577.31165	46.14083	73.82318	748.88837	61.9156	-144.86655	776.82428	64.68627	-45.73317	680.2373	1638.85535	126.91311	687.44556	1646.59167	-12.20866	625.36963	1807.07336	65.96484
139	2.3	604.6366	1074.47156	179.46716	610.66632	1067.93665	-80.37424	409.27338	1070.96069	51.17189	551.228	739.618	218.195	610.409	678.862	123.541	533.061	620.367	201.931	626.96	785.724	-144.851	731.355	788.428	-93.0615	671.53	685.411	-134.464	445.22464	459.9436	183.23871	517.34912	416.34711	127.91916	446.94702	372.67453	185.78355	717.3584	481.39865	-133.40724	765.20886	423.42331	-89.13898	691.6795	440.61951	-140.0723	326.87451	72.73512	91.25423	469.58401	77.2213	61.20311	461.50449	63.18208	167.52832	613.6344	47.33499	104.86761	597.50043	115.96716	-41.63855	766.56946	98.84414	-37.68872	737.63934	94.46259	-131.61551	869.90985	63.58643	-79.49869	637.76697	1387.5625	37.66171	540.89844	1471.52637	252.62575	553.8136	1496.21338	-166.8846	578.04254	1269.46973	297.56631	543.09113	1260.77405	-206.77545	554.91675	1161.59937	330.14691	479.40289	1172.70447	-242.15622	760.8739	993.85706	290.59573	734.89441	963.9928	341.87085	585.89355	943.23712	-208.2448	536.12848	933.21973	-264.1337	548.92169	38.1201	184.42957	558.06763	45.63967	73.50704	795.17969	62.35759	-147.63487	824.12457	66.38239	-48.90673	679.59021	1638.11731	125.4284	686.59241	1645.09497	-14.31841	623.49683	1805.17798	64.02469
140	2.317	601.27429	1071.6925	179.59573	613.33374	1065.65259	-81.53938	407.96277	1069.4032	50.46749	543.487	736.759	217.866	600.735	674.453	123.032	522.023	618.058	201.603	624.544	780.812	-144.595	729.714	783.212	-94.3828	668.483	680.259	-133.846	431.85074	459.92905	182.81151	502.38593	415.13483	128.32559	432.13287	372.28891	185.99408	720.89154	476.10583	-132.26883	774.54388	422.95758	-86.95761	698.29156	432.58725	-138.06104	307.90305	73.28467	90.96957	450.59546	76.97165	61.00618	442.63367	63.32746	167.34785	594.57129	47.05025	104.86924	639.44885	99.13335	-40.94974	809.3656	98.61982	-39.17618	779.77594	92.59964	-132.75003	915.07288	73.84406	-82.50243	637.05176	1384.32764	36.32349	540.38733	1470.05103	251.22627	551.72424	1494.00525	-168.0226	577.11353	1268.29114	296.92523	541.60461	1257.96436	-206.51617	555.28528	1160.13477	330.13562	476.15857	1170.38647	-242.45012	765.0827	997.66461	288.23694	740.39044	966.24921	339.30295	584.74298	940.87958	-207.77808	534.63354	930.11292	-262.24704	531.12457	38.42759	184.04285	538.44836	45.07613	73.16283	840.05261	66.39076	-149.68732	869.53418	72.12742	-51.22469	678.99591	1636.5304	123.91658	685.51404	1643.19763	-16.0647	621.70996	1803.35034	61.86224
